<mxfile host="app.diagrams.net" modified="2020-10-29T09:04:56.559Z" agent="5.0 (Windows NT 10.0; Win64; x64) AppleWebKit/537.36 (KHTML, like Gecko) Chrome/86.0.4240.111 Safari/537.36" etag="FpzKX5_GUQegbmct9JL2" version="13.8.6" type="github">
  <diagram id="piDafpqhtRUU5qUU-vj8" name="Page-1">
    <mxGraphModel dx="1422" dy="753" grid="1" gridSize="10" guides="1" tooltips="1" connect="1" arrows="1" fold="1" page="1" pageScale="1" pageWidth="827" pageHeight="1169" math="0" shadow="0">
      <root>
        <mxCell id="0" />
        <mxCell id="1" parent="0" />
        <mxCell id="8962rQQDY3VNNf6We3Pp-1" value="" style="strokeWidth=1;shadow=0;dashed=0;align=center;html=1;shape=mxgraph.mockup.containers.browserWindow;rSize=0;strokeColor2=#008cff;strokeColor3=#c4c4c4;mainText=,;recursiveResize=0;strokeColor=#FFFFFF;fontColor=#FFFFFF;" parent="1" vertex="1">
          <mxGeometry x="10" y="10" width="1150" height="1330" as="geometry" />
        </mxCell>
        <mxCell id="8962rQQDY3VNNf6We3Pp-2" value="Page 1" style="strokeWidth=1;shadow=0;dashed=0;align=center;html=1;shape=mxgraph.mockup.containers.anchor;fontSize=17;fontColor=#666666;align=left;" parent="8962rQQDY3VNNf6We3Pp-1" vertex="1">
          <mxGeometry x="60" y="12" width="110" height="26" as="geometry" />
        </mxCell>
        <mxCell id="8962rQQDY3VNNf6We3Pp-3" value="https://www.example.com" style="strokeWidth=1;shadow=0;dashed=0;align=center;html=1;shape=mxgraph.mockup.containers.anchor;rSize=0;fontSize=17;fontColor=#666666;align=left;" parent="8962rQQDY3VNNf6We3Pp-1" vertex="1">
          <mxGeometry x="130" y="60" width="250" height="26" as="geometry" />
        </mxCell>
        <mxCell id="8962rQQDY3VNNf6We3Pp-4" value="" style="verticalLabelPosition=bottom;shadow=0;dashed=0;align=center;html=1;verticalAlign=top;strokeWidth=1;shape=mxgraph.mockup.containers.videoPlayer;strokeColor=#666666;strokeColor2=#008cff;strokeColor3=#c4c4c4;textColor=#666666;fillColor2=#008cff;barHeight=30;barPos=20;" parent="8962rQQDY3VNNf6We3Pp-1" vertex="1">
          <mxGeometry y="110" width="1150" height="590" as="geometry" />
        </mxCell>
        <mxCell id="8962rQQDY3VNNf6We3Pp-17" value="" style="html=1;verticalLabelPosition=bottom;align=center;labelBackgroundColor=#ffffff;verticalAlign=top;strokeWidth=2;strokeColor=#0080F0;shadow=0;dashed=0;shape=mxgraph.ios7.icons.video_conversation;fontSize=13;fontColor=#0066CC;" parent="8962rQQDY3VNNf6We3Pp-1" vertex="1">
          <mxGeometry x="420" y="320" width="310" height="170" as="geometry" />
        </mxCell>
        <mxCell id="8962rQQDY3VNNf6We3Pp-18" value="" style="verticalLabelPosition=bottom;shadow=0;dashed=0;align=center;html=1;verticalAlign=top;strokeWidth=1;shape=mxgraph.mockup.graphics.simpleIcon;strokeColor=#999999;fontSize=13;fontColor=#0066CC;" parent="8962rQQDY3VNNf6We3Pp-1" vertex="1">
          <mxGeometry x="680" y="800" width="50" height="50" as="geometry" />
        </mxCell>
        <mxCell id="8962rQQDY3VNNf6We3Pp-19" value="" style="verticalLabelPosition=bottom;shadow=0;dashed=0;align=center;html=1;verticalAlign=top;strokeWidth=1;shape=mxgraph.mockup.graphics.simpleIcon;strokeColor=#999999;fontSize=13;fontColor=#0066CC;" parent="8962rQQDY3VNNf6We3Pp-1" vertex="1">
          <mxGeometry x="780" y="800" width="50" height="50" as="geometry" />
        </mxCell>
        <mxCell id="8962rQQDY3VNNf6We3Pp-20" value="" style="verticalLabelPosition=bottom;shadow=0;dashed=0;align=center;html=1;verticalAlign=top;strokeWidth=1;shape=mxgraph.mockup.graphics.simpleIcon;strokeColor=#999999;fontSize=13;fontColor=#0066CC;" parent="8962rQQDY3VNNf6We3Pp-1" vertex="1">
          <mxGeometry x="880" y="800" width="50" height="50" as="geometry" />
        </mxCell>
        <mxCell id="8962rQQDY3VNNf6We3Pp-21" value="" style="verticalLabelPosition=bottom;shadow=0;dashed=0;align=center;html=1;verticalAlign=top;strokeWidth=1;shape=mxgraph.mockup.graphics.simpleIcon;strokeColor=#999999;fontSize=13;fontColor=#0066CC;" parent="8962rQQDY3VNNf6We3Pp-1" vertex="1">
          <mxGeometry x="680" y="890" width="50" height="50" as="geometry" />
        </mxCell>
        <mxCell id="8962rQQDY3VNNf6We3Pp-22" value="" style="verticalLabelPosition=bottom;shadow=0;dashed=0;align=center;html=1;verticalAlign=top;strokeWidth=1;shape=mxgraph.mockup.graphics.simpleIcon;strokeColor=#999999;fontSize=13;fontColor=#0066CC;" parent="8962rQQDY3VNNf6We3Pp-1" vertex="1">
          <mxGeometry x="780" y="890" width="50" height="50" as="geometry" />
        </mxCell>
        <mxCell id="8962rQQDY3VNNf6We3Pp-23" value="" style="verticalLabelPosition=bottom;shadow=0;dashed=0;align=center;html=1;verticalAlign=top;strokeWidth=1;shape=mxgraph.mockup.graphics.simpleIcon;strokeColor=#999999;fontSize=13;fontColor=#0066CC;" parent="8962rQQDY3VNNf6We3Pp-1" vertex="1">
          <mxGeometry x="880" y="890" width="50" height="50" as="geometry" />
        </mxCell>
        <mxCell id="8962rQQDY3VNNf6We3Pp-24" value="" style="verticalLabelPosition=bottom;shadow=0;dashed=0;align=center;html=1;verticalAlign=top;strokeWidth=1;shape=mxgraph.mockup.graphics.simpleIcon;strokeColor=#999999;fontSize=13;fontColor=#0066CC;" parent="8962rQQDY3VNNf6We3Pp-1" vertex="1">
          <mxGeometry x="680" y="980" width="50" height="50" as="geometry" />
        </mxCell>
        <mxCell id="8962rQQDY3VNNf6We3Pp-25" value="" style="verticalLabelPosition=bottom;shadow=0;dashed=0;align=center;html=1;verticalAlign=top;strokeWidth=1;shape=mxgraph.mockup.graphics.simpleIcon;strokeColor=#999999;fontSize=13;fontColor=#0066CC;" parent="8962rQQDY3VNNf6We3Pp-1" vertex="1">
          <mxGeometry x="780" y="980" width="50" height="50" as="geometry" />
        </mxCell>
        <mxCell id="8962rQQDY3VNNf6We3Pp-26" value="" style="verticalLabelPosition=bottom;shadow=0;dashed=0;align=center;html=1;verticalAlign=top;strokeWidth=1;shape=mxgraph.mockup.graphics.simpleIcon;strokeColor=#999999;fontSize=13;fontColor=#0066CC;" parent="8962rQQDY3VNNf6We3Pp-1" vertex="1">
          <mxGeometry x="880" y="980" width="50" height="50" as="geometry" />
        </mxCell>
        <mxCell id="8962rQQDY3VNNf6We3Pp-27" value="" style="strokeWidth=1;shadow=0;dashed=0;align=center;html=1;shape=mxgraph.mockup.buttons.multiButton;fillColor=#008cff;strokeColor=#666666;mainText=;subText=;fontSize=13;fontColor=#0066CC;" parent="8962rQQDY3VNNf6We3Pp-1" vertex="1">
          <mxGeometry x="204" y="810" width="200" height="210" as="geometry" />
        </mxCell>
        <mxCell id="8962rQQDY3VNNf6We3Pp-28" value="These companies&lt;br&gt;trust us" style="strokeWidth=1;shadow=0;dashed=0;align=center;html=1;shape=mxgraph.mockup.anchor;fontSize=16;fontColor=#ffffff;fontStyle=1;whiteSpace=wrap;" parent="8962rQQDY3VNNf6We3Pp-27" vertex="1">
          <mxGeometry y="33.6" width="200" height="84" as="geometry" />
        </mxCell>
        <mxCell id="8962rQQDY3VNNf6We3Pp-29" value="" style="strokeWidth=1;shadow=0;dashed=0;align=center;html=1;shape=mxgraph.mockup.anchor;fontSize=12;fontColor=#ffffff;fontStyle=1;whiteSpace=wrap;" parent="8962rQQDY3VNNf6We3Pp-27" vertex="1">
          <mxGeometry y="126" width="200" height="42" as="geometry" />
        </mxCell>
        <mxCell id="8962rQQDY3VNNf6We3Pp-35" value="" style="verticalLabelPosition=bottom;shadow=0;dashed=0;align=center;html=1;verticalAlign=top;strokeWidth=1;shape=mxgraph.mockup.markup.line;strokeColor=#999999;fillColor=#008CFF;fontSize=13;fontColor=#0066CC;" parent="8962rQQDY3VNNf6We3Pp-1" vertex="1">
          <mxGeometry y="1180" width="1150" height="20" as="geometry" />
        </mxCell>
        <mxCell id="8962rQQDY3VNNf6We3Pp-30" value="" style="shape=rect;fillColor=#ffffff;strokeColor=#eeeeee;shadow=0;fontSize=13;fontColor=#0066CC;" parent="8962rQQDY3VNNf6We3Pp-1" vertex="1">
          <mxGeometry x="425" y="1230" width="300" height="40" as="geometry" />
        </mxCell>
        <mxCell id="8962rQQDY3VNNf6We3Pp-31" value="BUTTON" style="shape=rect;strokeColor=none;fillColor=none;fontSize=12;fontColor=#2196F3;dashed=0;" parent="8962rQQDY3VNNf6We3Pp-30" vertex="1">
          <mxGeometry width="75" height="40" as="geometry" />
        </mxCell>
        <mxCell id="8962rQQDY3VNNf6We3Pp-32" value="BUTTON" style="shape=rect;strokeColor=none;fillColor=none;fontSize=12;fontColor=#2196F3;dashed=0;" parent="8962rQQDY3VNNf6We3Pp-30" vertex="1">
          <mxGeometry x="75" width="75" height="40" as="geometry" />
        </mxCell>
        <mxCell id="8962rQQDY3VNNf6We3Pp-33" value="BUTTON" style="shape=rect;strokeColor=none;fillColor=none;fontSize=12;fontColor=#2196F3;dashed=0;" parent="8962rQQDY3VNNf6We3Pp-30" vertex="1">
          <mxGeometry x="150" width="75" height="40" as="geometry" />
        </mxCell>
        <mxCell id="8962rQQDY3VNNf6We3Pp-34" value="BUTTON" style="shape=rect;strokeColor=none;fillColor=none;fontSize=12;fontColor=#2196F3;dashed=0;" parent="8962rQQDY3VNNf6We3Pp-30" vertex="1">
          <mxGeometry x="225" width="75" height="40" as="geometry" />
        </mxCell>
        <mxCell id="8962rQQDY3VNNf6We3Pp-36" value="" style="shape=image;html=1;verticalAlign=top;verticalLabelPosition=bottom;labelBackgroundColor=#ffffff;imageAspect=0;aspect=fixed;image=https://cdn3.iconfinder.com/data/icons/peelicons-vol-1/50/LinkedIn-128.png;fillColor=#008CFF;fontSize=13;fontColor=#0066CC;" parent="8962rQQDY3VNNf6We3Pp-1" vertex="1">
          <mxGeometry x="870" y="1235" width="30" height="30" as="geometry" />
        </mxCell>
        <mxCell id="8962rQQDY3VNNf6We3Pp-37" value="" style="shape=image;html=1;verticalAlign=top;verticalLabelPosition=bottom;labelBackgroundColor=#ffffff;imageAspect=0;aspect=fixed;image=https://cdn3.iconfinder.com/data/icons/peelicons-vol-1/50/Facebook-128.png;fillColor=#008CFF;fontSize=13;fontColor=#0066CC;" parent="8962rQQDY3VNNf6We3Pp-1" vertex="1">
          <mxGeometry x="920" y="1235" width="30" height="30" as="geometry" />
        </mxCell>
        <mxCell id="8962rQQDY3VNNf6We3Pp-38" value="" style="shape=image;html=1;verticalAlign=top;verticalLabelPosition=bottom;labelBackgroundColor=#ffffff;imageAspect=0;aspect=fixed;image=https://cdn3.iconfinder.com/data/icons/peelicons-vol-1/50/Twitter-128.png;fillColor=#008CFF;fontSize=13;fontColor=#0066CC;" parent="8962rQQDY3VNNf6We3Pp-1" vertex="1">
          <mxGeometry x="970" y="1235" width="30" height="30" as="geometry" />
        </mxCell>
      </root>
    </mxGraphModel>
  </diagram>
</mxfile>
